<svg width="210" height="72" viewBox="0 0 210 72" fill="none" xmlns="http://www.w3.org/2000/svg">
<g filter="url(#filter0_d_1_12)">
<mask id="path-1-outside-1_1_12" maskUnits="userSpaceOnUse" x="2.74157" y="-0.522464" width="204.912" height="64.8122" fill="black">
<rect fill="white" x="2.74157" y="-0.522464" width="204.912" height="64.8122"/>
<path d="M17.9464 12.7908L17.984 24.0967C18.9906 24.1379 19.8971 24.2647 20.7033 24.4773C21.5096 24.6898 22.2029 24.9272 22.7834 25.1895C23.3803 25.433 23.8532 25.6669 24.2023 25.8912C24.5502 26.0979 24.7615 26.234 24.8361 26.2997L23.6 30.9234C23.5078 30.8588 23.2439 30.726 22.8083 30.525C22.3891 30.3052 21.864 30.0835 21.2332 29.8597C20.6188 29.6172 19.9359 29.4056 19.1845 29.2248C18.4507 29.0428 17.723 28.9573 17.0015 28.9683C15.1178 28.9834 13.6758 29.296 12.6757 29.9061C11.6931 30.5151 11.2372 31.3722 11.308 32.4773C11.3429 33.0211 11.4844 33.4436 11.7327 33.7448C11.9799 34.0284 12.3903 34.2487 12.964 34.4057C13.5553 34.5615 14.3472 34.6869 15.3396 34.7818C16.331 34.8592 17.5877 34.9548 19.1098 35.0686C20.4916 35.1915 21.6362 35.4616 22.5437 35.879C23.45 36.2789 24.1772 36.7695 24.7253 37.3509C25.2909 37.9312 25.6938 38.5835 25.934 39.3079C26.1906 40.0136 26.3425 40.7349 26.3897 41.4716C26.4291 42.0856 26.413 42.6591 26.3414 43.1921C26.184 44.8579 25.525 46.2565 24.3645 47.3877C23.2215 48.5178 21.6592 49.2873 19.6773 49.6961L21.182 62.0441L16.1137 62.5274L15.9179 49.9899C14.6634 49.9293 13.5063 49.7393 12.4466 49.4197C11.4044 49.0989 10.4921 48.7435 9.70973 48.3533C8.92731 47.9631 8.29625 47.5984 7.81654 47.2592C7.33684 46.9201 7.05853 46.7001 6.98162 46.5993L8.84891 42.7543C9.46558 43.0318 10.1371 43.3411 10.8635 43.682C11.59 44.023 12.3498 44.3354 13.143 44.6192C13.9537 44.9019 14.7874 45.1303 15.6441 45.3044C16.4996 45.461 17.3747 45.5106 18.2693 45.4532C19.2692 45.3892 20.0731 45.1527 20.681 44.7438C21.3065 44.3338 21.6943 43.7894 21.8446 43.1104C21.9433 42.4524 21.8377 41.9043 21.5278 41.4662C21.2179 41.0281 20.8002 40.6937 20.2746 40.4632C19.7654 40.214 19.1912 40.0482 18.5518 39.9659C17.9113 39.8661 17.318 39.816 16.7719 39.8158C10.8258 39.9326 7.57179 38.0803 7.00984 34.2588C6.80947 33.0563 6.81646 31.9285 7.03081 30.8755C7.2627 29.8214 7.66855 28.8707 8.24835 28.0233C8.8457 27.1747 9.60936 26.4477 10.5393 25.842C11.4693 25.2364 12.5497 24.7796 13.7806 24.4718L12.3518 13.3079L17.9464 12.7908ZM67.2415 44.4286C66.4301 45.784 65.4704 47.0257 64.3625 48.1535C63.2535 49.2638 62.0297 50.2318 60.6911 51.0573C59.3701 51.8818 57.9418 52.5458 56.4064 53.0493C54.8886 53.5517 53.2964 53.8563 51.6299 53.9631C49.788 54.0811 48.0005 53.9491 46.2674 53.567C44.553 53.2012 42.9309 52.627 41.4012 51.8444C39.8703 51.0441 38.4603 50.0688 37.1712 48.9185C35.881 47.7505 34.7578 46.4398 33.8015 44.9863C32.8453 43.5327 32.0747 41.9528 31.4898 40.2465C30.9048 38.5402 30.5522 36.7485 30.4319 34.8715C30.3116 32.9945 30.4327 31.1725 30.795 29.4054C31.1574 27.6384 31.72 25.9731 32.4829 24.4093C33.2457 22.8456 34.193 21.411 35.3248 20.1055C36.4553 18.7824 37.7293 17.6351 39.1466 16.6636C40.5628 15.6745 42.1066 14.8886 43.7778 14.306C45.4479 13.7057 47.1952 13.3472 49.0195 13.2302C50.5808 13.1302 52.1007 13.2089 53.5791 13.4665C55.0576 13.724 56.4755 14.1351 57.8327 14.6999C59.19 15.2646 60.4685 15.9753 61.6684 16.832C62.8682 17.6887 63.9607 18.6579 64.946 19.7397L61.1308 23.2868C59.6535 21.6729 57.9004 20.429 55.8716 19.555C53.8604 18.6799 51.6882 18.3171 49.3551 18.4666C47.3202 18.597 45.4428 19.1224 43.7227 20.0429C42.0015 20.9458 40.5182 22.1242 39.2727 23.5779C38.0272 25.0316 37.0775 26.7042 36.4237 28.5956C35.7863 30.4683 35.5345 32.4484 35.6683 34.5359C35.802 36.6234 36.3051 38.564 37.1775 40.3576C38.0673 42.15 39.2227 43.6877 40.6436 44.9705C42.0645 46.2534 43.6867 47.2415 45.5102 47.9349C47.3325 48.6108 49.2611 48.8835 51.296 48.7531C52.524 48.6744 53.6985 48.4494 54.8196 48.0781C55.9408 47.7068 56.9838 47.2172 57.9489 46.6093C58.9315 46.0003 59.8278 45.2824 60.6379 44.4554C61.4656 43.6274 62.1824 42.7183 62.7883 41.7283L67.2415 44.4286ZM78.4731 33.748L101.582 31.1309L100.066 11.597L105.961 11.642L108.594 47.7761L102.965 48.586L102.001 36.0184L78.8326 38.5336L79.7739 50.3364L74.288 50.8994L71.3766 13.3035L76.9119 12.6846L78.4731 33.748ZM154.193 27.0988C154.313 28.9758 154.192 30.7978 153.83 32.5649C153.467 34.3143 152.895 35.9715 152.114 37.5363C151.351 39.1 150.405 40.5434 149.274 41.8665C148.143 43.1895 146.861 44.3462 145.427 45.3364C144.01 46.3079 142.466 47.0938 140.796 47.694C139.144 48.2931 137.405 48.6511 135.581 48.7681C133.739 48.8861 131.951 48.754 130.218 48.3719C128.503 47.9887 126.88 47.4057 125.35 46.623C123.82 45.8228 122.409 44.8387 121.119 43.6708C119.829 42.5029 118.705 41.1921 117.749 39.7386C116.793 38.2851 116.023 36.7139 115.439 35.0251C114.854 33.3188 114.501 31.5272 114.381 29.6501C114.261 27.7731 114.382 25.9511 114.744 24.1841C115.107 22.4171 115.669 20.7517 116.432 19.188C117.195 17.6243 118.142 16.1897 119.274 14.8841C120.405 13.5611 121.679 12.4138 123.096 11.4422C124.512 10.4532 126.056 9.66729 127.727 9.0846C129.397 8.48438 131.144 8.1258 132.969 8.00889C134.793 7.89197 136.563 8.02514 138.279 8.4084C140.011 8.77299 141.642 9.3554 143.173 10.1556C144.72 10.9372 146.139 11.9119 147.429 13.0798C148.718 14.2302 149.841 15.5322 150.797 16.9857C151.771 18.4381 152.55 20.0175 153.135 21.7238C153.72 23.4301 154.073 25.2218 154.193 27.0988ZM148.983 27.4327C148.894 26.0469 148.633 24.7249 148.2 23.4668C147.766 22.1912 147.189 21.0128 146.468 19.9317C145.764 18.8495 144.936 17.8809 143.983 17.0261C143.029 16.1537 141.987 15.4278 140.858 14.8484C139.728 14.2515 138.52 13.8181 137.234 13.5482C135.965 13.2597 134.655 13.1587 133.304 13.2452C131.269 13.3756 129.392 13.9011 127.672 14.8215C125.951 15.7245 124.467 16.9028 123.222 18.3565C121.976 19.8103 121.027 21.4828 120.373 23.3742C119.736 25.2469 119.484 27.2271 119.618 29.3146C119.751 31.4021 120.254 33.3426 121.127 35.1362C122.017 36.9287 123.172 38.4663 124.593 39.7492C126.014 41.032 127.636 42.0202 129.459 42.7136C131.282 43.3894 133.21 43.6621 135.245 43.5317C136.596 43.4452 137.883 43.1865 139.106 42.7559C140.345 42.3066 141.488 41.7225 142.534 41.0038C143.579 40.2675 144.52 39.4145 145.356 38.445C146.191 37.458 146.888 36.3828 147.448 35.2197C148.025 34.0554 148.448 32.8217 148.716 31.5186C148.984 30.198 149.073 28.8361 148.983 27.4327ZM202.869 4.13702L198.246 43.7217L192.052 43.9601L180.682 14.5421L172.022 45.5608L166.575 45.9099L156.827 8.01234L162.331 6.89346L169.027 36.7695L177.09 8.37839L183.664 8.72327L194.181 36.7693L197.353 3.40724L202.869 4.13702Z"/>
</mask>
<path d="M17.9464 12.7908L17.984 24.0967C18.9906 24.1379 19.8971 24.2647 20.7033 24.4773C21.5096 24.6898 22.2029 24.9272 22.7834 25.1895C23.3803 25.433 23.8532 25.6669 24.2023 25.8912C24.5502 26.0979 24.7615 26.234 24.8361 26.2997L23.6 30.9234C23.5078 30.8588 23.2439 30.726 22.8083 30.525C22.3891 30.3052 21.864 30.0835 21.2332 29.8597C20.6188 29.6172 19.9359 29.4056 19.1845 29.2248C18.4507 29.0428 17.723 28.9573 17.0015 28.9683C15.1178 28.9834 13.6758 29.296 12.6757 29.9061C11.6931 30.5151 11.2372 31.3722 11.308 32.4773C11.3429 33.0211 11.4844 33.4436 11.7327 33.7448C11.9799 34.0284 12.3903 34.2487 12.964 34.4057C13.5553 34.5615 14.3472 34.6869 15.3396 34.7818C16.331 34.8592 17.5877 34.9548 19.1098 35.0686C20.4916 35.1915 21.6362 35.4616 22.5437 35.879C23.45 36.2789 24.1772 36.7695 24.7253 37.3509C25.2909 37.9312 25.6938 38.5835 25.934 39.3079C26.1906 40.0136 26.3425 40.7349 26.3897 41.4716C26.4291 42.0856 26.413 42.6591 26.3414 43.1921C26.184 44.8579 25.525 46.2565 24.3645 47.3877C23.2215 48.5178 21.6592 49.2873 19.6773 49.6961L21.182 62.0441L16.1137 62.5274L15.9179 49.9899C14.6634 49.9293 13.5063 49.7393 12.4466 49.4197C11.4044 49.0989 10.4921 48.7435 9.70973 48.3533C8.92731 47.9631 8.29625 47.5984 7.81654 47.2592C7.33684 46.9201 7.05853 46.7001 6.98162 46.5993L8.84891 42.7543C9.46558 43.0318 10.1371 43.3411 10.8635 43.682C11.59 44.023 12.3498 44.3354 13.143 44.6192C13.9537 44.9019 14.7874 45.1303 15.6441 45.3044C16.4996 45.461 17.3747 45.5106 18.2693 45.4532C19.2692 45.3892 20.0731 45.1527 20.681 44.7438C21.3065 44.3338 21.6943 43.7894 21.8446 43.1104C21.9433 42.4524 21.8377 41.9043 21.5278 41.4662C21.2179 41.0281 20.8002 40.6937 20.2746 40.4632C19.7654 40.214 19.1912 40.0482 18.5518 39.9659C17.9113 39.8661 17.318 39.816 16.7719 39.8158C10.8258 39.9326 7.57179 38.0803 7.00984 34.2588C6.80947 33.0563 6.81646 31.9285 7.03081 30.8755C7.2627 29.8214 7.66855 28.8707 8.24835 28.0233C8.8457 27.1747 9.60936 26.4477 10.5393 25.842C11.4693 25.2364 12.5497 24.7796 13.7806 24.4718L12.3518 13.3079L17.9464 12.7908ZM67.2415 44.4286C66.4301 45.784 65.4704 47.0257 64.3625 48.1535C63.2535 49.2638 62.0297 50.2318 60.6911 51.0573C59.3701 51.8818 57.9418 52.5458 56.4064 53.0493C54.8886 53.5517 53.2964 53.8563 51.6299 53.9631C49.788 54.0811 48.0005 53.9491 46.2674 53.567C44.553 53.2012 42.9309 52.627 41.4012 51.8444C39.8703 51.0441 38.4603 50.0688 37.1712 48.9185C35.881 47.7505 34.7578 46.4398 33.8015 44.9863C32.8453 43.5327 32.0747 41.9528 31.4898 40.2465C30.9048 38.5402 30.5522 36.7485 30.4319 34.8715C30.3116 32.9945 30.4327 31.1725 30.795 29.4054C31.1574 27.6384 31.72 25.9731 32.4829 24.4093C33.2457 22.8456 34.193 21.411 35.3248 20.1055C36.4553 18.7824 37.7293 17.6351 39.1466 16.6636C40.5628 15.6745 42.1066 14.8886 43.7778 14.306C45.4479 13.7057 47.1952 13.3472 49.0195 13.2302C50.5808 13.1302 52.1007 13.2089 53.5791 13.4665C55.0576 13.724 56.4755 14.1351 57.8327 14.6999C59.19 15.2646 60.4685 15.9753 61.6684 16.832C62.8682 17.6887 63.9607 18.6579 64.946 19.7397L61.1308 23.2868C59.6535 21.6729 57.9004 20.429 55.8716 19.555C53.8604 18.6799 51.6882 18.3171 49.3551 18.4666C47.3202 18.597 45.4428 19.1224 43.7227 20.0429C42.0015 20.9458 40.5182 22.1242 39.2727 23.5779C38.0272 25.0316 37.0775 26.7042 36.4237 28.5956C35.7863 30.4683 35.5345 32.4484 35.6683 34.5359C35.802 36.6234 36.3051 38.564 37.1775 40.3576C38.0673 42.15 39.2227 43.6877 40.6436 44.9705C42.0645 46.2534 43.6867 47.2415 45.5102 47.9349C47.3325 48.6108 49.2611 48.8835 51.296 48.7531C52.524 48.6744 53.6985 48.4494 54.8196 48.0781C55.9408 47.7068 56.9838 47.2172 57.9489 46.6093C58.9315 46.0003 59.8278 45.2824 60.6379 44.4554C61.4656 43.6274 62.1824 42.7183 62.7883 41.7283L67.2415 44.4286ZM78.4731 33.748L101.582 31.1309L100.066 11.597L105.961 11.642L108.594 47.7761L102.965 48.586L102.001 36.0184L78.8326 38.5336L79.7739 50.3364L74.288 50.8994L71.3766 13.3035L76.9119 12.6846L78.4731 33.748ZM154.193 27.0988C154.313 28.9758 154.192 30.7978 153.83 32.5649C153.467 34.3143 152.895 35.9715 152.114 37.5363C151.351 39.1 150.405 40.5434 149.274 41.8665C148.143 43.1895 146.861 44.3462 145.427 45.3364C144.01 46.3079 142.466 47.0938 140.796 47.694C139.144 48.2931 137.405 48.6511 135.581 48.7681C133.739 48.8861 131.951 48.754 130.218 48.3719C128.503 47.9887 126.88 47.4057 125.35 46.623C123.82 45.8228 122.409 44.8387 121.119 43.6708C119.829 42.5029 118.705 41.1921 117.749 39.7386C116.793 38.2851 116.023 36.7139 115.439 35.0251C114.854 33.3188 114.501 31.5272 114.381 29.6501C114.261 27.7731 114.382 25.9511 114.744 24.1841C115.107 22.4171 115.669 20.7517 116.432 19.188C117.195 17.6243 118.142 16.1897 119.274 14.8841C120.405 13.5611 121.679 12.4138 123.096 11.4422C124.512 10.4532 126.056 9.66729 127.727 9.0846C129.397 8.48438 131.144 8.1258 132.969 8.00889C134.793 7.89197 136.563 8.02514 138.279 8.4084C140.011 8.77299 141.642 9.3554 143.173 10.1556C144.72 10.9372 146.139 11.9119 147.429 13.0798C148.718 14.2302 149.841 15.5322 150.797 16.9857C151.771 18.4381 152.55 20.0175 153.135 21.7238C153.72 23.4301 154.073 25.2218 154.193 27.0988ZM148.983 27.4327C148.894 26.0469 148.633 24.7249 148.2 23.4668C147.766 22.1912 147.189 21.0128 146.468 19.9317C145.764 18.8495 144.936 17.8809 143.983 17.0261C143.029 16.1537 141.987 15.4278 140.858 14.8484C139.728 14.2515 138.52 13.8181 137.234 13.5482C135.965 13.2597 134.655 13.1587 133.304 13.2452C131.269 13.3756 129.392 13.9011 127.672 14.8215C125.951 15.7245 124.467 16.9028 123.222 18.3565C121.976 19.8103 121.027 21.4828 120.373 23.3742C119.736 25.2469 119.484 27.2271 119.618 29.3146C119.751 31.4021 120.254 33.3426 121.127 35.1362C122.017 36.9287 123.172 38.4663 124.593 39.7492C126.014 41.032 127.636 42.0202 129.459 42.7136C131.282 43.3894 133.21 43.6621 135.245 43.5317C136.596 43.4452 137.883 43.1865 139.106 42.7559C140.345 42.3066 141.488 41.7225 142.534 41.0038C143.579 40.2675 144.52 39.4145 145.356 38.445C146.191 37.458 146.888 36.3828 147.448 35.2197C148.025 34.0554 148.448 32.8217 148.716 31.5186C148.984 30.198 149.073 28.8361 148.983 27.4327ZM202.869 4.13702L198.246 43.7217L192.052 43.9601L180.682 14.5421L172.022 45.5608L166.575 45.9099L156.827 8.01234L162.331 6.89346L169.027 36.7695L177.09 8.37839L183.664 8.72327L194.181 36.7693L197.353 3.40724L202.869 4.13702Z" fill="white" fill-opacity="0.8" shape-rendering="crispEdges"/>
<path d="M17.9464 12.7908L18.9464 12.7875L18.9427 11.6945L17.8543 11.7951L17.9464 12.7908ZM17.984 24.0967L16.984 24.1L16.9871 25.0568L17.9431 25.0959L17.984 24.0967ZM22.7834 25.1895L22.3717 26.1008L22.3885 26.1084L22.4056 26.1153L22.7834 25.1895ZM24.2023 25.8912L23.6618 26.7325L23.6765 26.742L23.6915 26.7509L24.2023 25.8912ZM24.8361 26.2997L25.8022 26.558L25.9625 25.9586L25.4966 25.5488L24.8361 26.2997ZM23.6 30.9234L23.0265 31.7426L24.1971 32.562L24.5661 31.1817L23.6 30.9234ZM22.8083 30.525L22.344 31.4107L22.3663 31.4224L22.3892 31.4329L22.8083 30.525ZM21.2332 29.8597L20.8661 30.7899L20.8824 30.7963L20.8989 30.8021L21.2332 29.8597ZM19.1845 29.2248L18.9438 30.1954L18.9505 30.197L19.1845 29.2248ZM17.0015 28.9683L17.0095 29.9683L17.0168 29.9682L17.0015 28.9683ZM12.6757 29.9061L12.1549 29.0524L12.1489 29.0561L12.6757 29.9061ZM11.7327 33.7448L10.9611 34.3809L10.9699 34.3915L10.9788 34.4018L11.7327 33.7448ZM12.964 34.4057L12.7001 35.3702L12.7091 35.3726L12.964 34.4057ZM15.3396 34.7818L15.2444 35.7773L15.2531 35.7781L15.2618 35.7788L15.3396 34.7818ZM19.1098 35.0686L19.1984 34.0725L19.1844 34.0714L19.1098 35.0686ZM22.5437 35.879L22.1258 36.7875L22.1329 36.7908L22.14 36.7939L22.5437 35.879ZM24.7253 37.3509L23.9977 38.0369L24.0034 38.0429L24.0092 38.0489L24.7253 37.3509ZM25.934 39.3079L24.9848 39.6226L24.9893 39.6362L24.9942 39.6496L25.934 39.3079ZM26.3414 43.1921L25.3503 43.0591L25.3477 43.0785L25.3459 43.098L26.3414 43.1921ZM24.3645 47.3877L23.6665 46.6716L23.6614 46.6766L24.3645 47.3877ZM19.6773 49.6961L19.4753 48.7167L18.5733 48.9028L18.6847 49.817L19.6773 49.6961ZM21.182 62.0441L21.277 63.0396L22.2989 62.9421L22.1747 61.9231L21.182 62.0441ZM16.1137 62.5274L15.1138 62.543L15.1307 63.6257L16.2086 63.5229L16.1137 62.5274ZM15.9179 49.9899L16.9178 49.9742L16.9031 49.0362L15.9661 48.991L15.9179 49.9899ZM12.4466 49.4197L12.1525 50.3755L12.1579 50.3771L12.4466 49.4197ZM9.70973 48.3533L9.26342 49.2481L9.70973 48.3533ZM6.98162 46.5993L6.08208 46.1625L5.81302 46.7165L6.18675 47.2061L6.98162 46.5993ZM8.84891 42.7543L9.25932 41.8424L8.37365 41.4438L7.94937 42.3174L8.84891 42.7543ZM13.143 44.6192L12.8061 45.5608L12.8137 45.5635L13.143 44.6192ZM15.6441 45.3044L15.4449 46.2844L15.4545 46.2863L15.4641 46.2881L15.6441 45.3044ZM20.681 44.7438L20.1328 43.9074L20.123 43.914L20.681 44.7438ZM21.8446 43.1104L22.821 43.3265L22.8284 43.2928L22.8335 43.2588L21.8446 43.1104ZM20.2746 40.4632L19.835 41.3614L19.8538 41.3706L19.8729 41.379L20.2746 40.4632ZM18.5518 39.9659L18.3977 40.954L18.4109 40.956L18.4241 40.9577L18.5518 39.9659ZM16.7719 39.8158L16.7724 38.8158L16.7623 38.8158L16.7523 38.816L16.7719 39.8158ZM7.00984 34.2588L7.9992 34.1133L7.99781 34.1039L7.99624 34.0944L7.00984 34.2588ZM7.03081 30.8755L6.05416 30.6607L6.05247 30.6684L6.05091 30.6761L7.03081 30.8755ZM8.24835 28.0233L7.43058 27.4476L7.42304 27.4586L8.24835 28.0233ZM13.7806 24.4718L14.0232 25.4419L14.8853 25.2263L14.7725 24.3448L13.7806 24.4718ZM12.3518 13.3079L12.2598 12.3121L11.2284 12.4074L11.3599 13.4348L12.3518 13.3079ZM16.9464 12.7941L16.984 24.1L18.984 24.0934L18.9464 12.7875L16.9464 12.7941ZM17.9431 25.0959C18.8918 25.1347 19.7248 25.2535 20.4484 25.4442L20.9582 23.5103C20.0693 23.276 19.0894 23.1411 18.0248 23.0975L17.9431 25.0959ZM20.4484 25.4442C21.2164 25.6467 21.8546 25.8671 22.3717 26.1008L23.1951 24.2782C22.5513 23.9873 21.8028 23.733 20.9582 23.5103L20.4484 25.4442ZM22.4056 26.1153C22.9732 26.347 23.3843 26.5543 23.6618 26.7325L24.7428 25.0498C24.3222 24.7796 23.7874 24.5191 23.1612 24.2636L22.4056 26.1153ZM23.6915 26.7509C23.8605 26.8513 23.9887 26.9301 24.0799 26.9889C24.1256 27.0183 24.1573 27.0397 24.1778 27.0542C24.2028 27.0718 24.1965 27.0689 24.1757 27.0506L25.4966 25.5488C25.3361 25.4077 25.0298 25.2197 24.713 25.0314L23.6915 26.7509ZM23.8701 26.0414L22.6339 30.6651L24.5661 31.1817L25.8022 26.558L23.8701 26.0414ZM24.1735 30.1042C23.9907 29.9762 23.6289 29.8023 23.2273 29.617L22.3892 31.4329C22.6022 31.5312 22.7657 31.6094 22.8834 31.6686C22.9423 31.6983 22.9849 31.7208 23.0139 31.7368C23.0481 31.7558 23.0462 31.7564 23.0265 31.7426L24.1735 30.1042ZM23.2725 29.6393C22.7982 29.3906 22.2263 29.1509 21.5675 28.9172L20.8989 30.8021C21.5018 31.016 21.9799 31.2198 22.344 31.4107L23.2725 29.6393ZM21.6003 28.9295C20.936 28.6674 20.2077 28.4425 19.4185 28.2525L18.9505 30.197C19.664 30.3687 20.3016 30.5671 20.8661 30.7899L21.6003 28.9295ZM19.4252 28.2542C18.6116 28.0524 17.798 27.9561 16.9863 27.9685L17.0168 29.9682C17.648 29.9586 18.2897 30.0332 18.9438 30.1954L19.4252 28.2542ZM16.9935 27.9684C15.0282 27.9841 13.3767 28.307 12.1549 29.0524L13.1965 30.7598C13.9749 30.2849 15.2074 29.9827 17.0095 29.9683L16.9935 27.9684ZM12.1489 29.0561C11.5361 29.4359 11.0395 29.9241 10.7139 30.5361C10.3872 31.1504 10.2645 31.8303 10.3101 32.5413L12.306 32.4134C12.2807 32.0192 12.3506 31.718 12.4797 31.4753C12.6101 31.2301 12.8326 30.9853 13.2025 30.7561L12.1489 29.0561ZM10.3101 32.5413C10.3532 33.2141 10.5355 33.8646 10.9611 34.3809L12.5043 33.1086C12.4334 33.0226 12.3326 32.8282 12.306 32.4134L10.3101 32.5413ZM10.9788 34.4018C11.4106 34.8972 12.0378 35.189 12.7001 35.3702L13.228 33.4411C12.7429 33.3084 12.5492 33.1596 12.4866 33.0878L10.9788 34.4018ZM12.7091 35.3726C13.375 35.5481 14.2271 35.68 15.2444 35.7773L15.4348 33.7864C14.4672 33.6938 13.7356 33.5749 13.2189 33.4387L12.7091 35.3726ZM15.2618 35.7788C16.2547 35.8563 17.5126 35.952 19.0353 36.0659L19.1844 34.0714C17.6629 33.9576 16.4073 33.8621 15.4175 33.7849L15.2618 35.7788ZM19.0213 36.0647C20.3301 36.1811 21.3541 36.4325 22.1258 36.7875L22.9616 34.9705C21.9184 34.4907 20.6531 34.2019 19.1984 34.0726L19.0213 36.0647ZM22.14 36.7939C22.9526 37.1524 23.5603 37.573 23.9977 38.0369L25.4529 36.6649C24.7941 35.9661 23.9475 35.4054 22.9474 34.9641L22.14 36.7939ZM24.0092 38.0489C24.4758 38.5276 24.7952 39.0508 24.9848 39.6226L26.8832 38.9932C26.5924 38.1162 26.106 37.3348 25.4414 36.6529L24.0092 38.0489ZM24.9942 39.6496C25.2188 40.2675 25.3507 40.8953 25.3918 41.5356L27.3877 41.4077C27.3343 40.5744 27.1623 39.7597 26.8738 38.9662L24.9942 39.6496ZM25.3918 41.5356C25.4275 42.0931 25.4119 42.5999 25.3503 43.0591L27.3325 43.3251C27.414 42.7183 27.4306 42.0782 27.3877 41.4077L25.3918 41.5356ZM25.3459 43.098C25.2099 44.5362 24.6513 45.7117 23.6665 46.6716L25.0625 48.1038C26.3987 46.8013 27.158 45.1797 27.337 43.2862L25.3459 43.098ZM23.6614 46.6766C22.6877 47.6394 21.3166 48.3369 19.4753 48.7167L19.8794 50.6755C22.0017 50.2376 23.7554 49.3962 25.0676 48.0988L23.6614 46.6766ZM18.6847 49.817L20.1894 62.165L22.1747 61.9231L20.67 49.5751L18.6847 49.817ZM21.0871 61.0486L16.0188 61.5319L16.2086 63.5229L21.277 63.0396L21.0871 61.0486ZM17.1136 62.5118L16.9178 49.9742L14.918 50.0055L15.1138 62.543L17.1136 62.5118ZM15.9661 48.991C14.7825 48.9339 13.7072 48.7554 12.7354 48.4623L12.1579 50.3771C13.3054 50.7232 14.5444 50.9248 15.8697 50.9887L15.9661 48.991ZM12.7407 48.4639C11.7387 48.1555 10.8792 47.8191 10.156 47.4584L9.26342 49.2481C10.105 49.6679 11.0702 50.0424 12.1525 50.3754L12.7407 48.4639ZM10.156 47.4584C9.39948 47.0811 8.81715 46.742 8.39384 46.4427L7.23925 48.0757C7.77534 48.4548 8.45514 48.845 9.26342 49.2481L10.156 47.4584ZM8.39384 46.4427C8.16045 46.2777 7.98723 46.1495 7.86809 46.0553C7.80835 46.0081 7.76968 45.9753 7.7472 45.955C7.71587 45.9267 7.73886 45.9433 7.77649 45.9926L6.18675 47.2061C6.3128 47.3712 6.50078 47.5239 6.62798 47.6244C6.78715 47.7502 6.99293 47.9016 7.23925 48.0757L8.39384 46.4427ZM7.88116 47.0362L9.74845 43.1911L7.94937 42.3174L6.08208 46.1625L7.88116 47.0362ZM8.4385 43.6662C9.04953 43.9412 9.71618 44.2482 10.4386 44.5873L11.2884 42.7768C10.5581 42.434 9.88163 42.1225 9.25932 41.8424L8.4385 43.6662ZM10.4386 44.5873C11.1952 44.9424 11.9844 45.2667 12.8061 45.5608L13.4799 43.6777C12.7151 43.404 11.9847 43.1036 11.2884 42.7768L10.4386 44.5873ZM12.8137 45.5635C13.6678 45.8613 14.545 46.1015 15.4449 46.2844L15.8432 44.3244C15.0299 44.1592 14.2397 43.9426 13.4722 43.675L12.8137 45.5635ZM15.4641 46.2881C16.4025 46.4598 17.3596 46.5136 18.3333 46.4512L18.2054 44.4553C17.3898 44.5075 16.5967 44.4621 15.8241 44.3207L15.4641 46.2881ZM18.3333 46.4512C19.4476 46.3798 20.44 46.1111 21.2391 45.5736L20.123 43.914C19.7063 44.1943 19.0909 44.3985 18.2054 44.4553L18.3333 46.4512ZM21.2293 45.5802C22.0547 45.0391 22.6098 44.2805 22.821 43.3265L20.8682 42.8944C20.7788 43.2982 20.5582 43.6286 20.1328 43.9075L21.2293 45.5802ZM22.8335 43.2588C22.9609 42.41 22.8369 41.5852 22.3442 40.8887L20.7114 42.0437C20.8385 42.2233 20.9258 42.4947 20.8557 42.962L22.8335 43.2588ZM22.3442 40.8887C21.9221 40.2919 21.3563 39.8457 20.6763 39.5474L19.8729 41.379C20.2441 41.5418 20.5138 41.7643 20.7114 42.0437L22.3442 40.8887ZM20.7142 39.565C20.0944 39.2617 19.4126 39.0685 18.6795 38.9741L18.4241 40.9577C18.9697 41.028 19.4364 41.1663 19.835 41.3614L20.7142 39.565ZM18.7058 38.9779C18.0236 38.8715 17.3783 38.816 16.7724 38.8158L16.7715 40.8158C17.2577 40.816 17.7989 40.8606 18.3977 40.954L18.7058 38.9779ZM16.7523 38.816C13.8632 38.8727 11.7705 38.4443 10.3665 37.6451C9.01665 36.8767 8.23705 35.7308 7.9992 34.1133L6.02048 34.4043C6.34457 36.6083 7.47297 38.2993 9.37712 39.3832C11.2272 40.4364 13.7346 40.8757 16.7916 40.8156L16.7523 38.816ZM7.99624 34.0944C7.8133 32.9965 7.82382 31.9931 8.01071 31.075L6.05091 30.6761C5.80911 31.8639 5.80565 33.116 6.02343 34.4232L7.99624 34.0944ZM8.00746 31.0904C8.21323 30.155 8.56993 29.3242 9.07366 28.588L7.42304 27.4586C6.76716 28.4172 6.31217 29.4878 6.05416 30.6607L8.00746 31.0904ZM9.06605 28.5989C9.58527 27.8614 10.2541 27.2211 11.085 26.68L9.9936 25.0041C8.9646 25.6742 8.10612 26.4881 7.43065 27.4476L9.06605 28.5989ZM11.085 26.68C11.9097 26.1429 12.8848 25.7266 14.0232 25.4419L13.5379 23.5016C12.2146 23.8326 11.0288 24.3299 9.9936 25.0041L11.085 26.68ZM14.7725 24.3448L13.3437 13.1809L11.3599 13.4348L12.7887 24.5987L14.7725 24.3448ZM12.4438 14.3036L18.0384 13.7866L17.8543 11.7951L12.2598 12.3121L12.4438 14.3036ZM67.2415 44.4286L68.0995 44.9422L68.6103 44.089L67.76 43.5735L67.2415 44.4286ZM64.3625 48.1535L65.0701 48.8602L65.0759 48.8543L64.3625 48.1535ZM60.6911 51.0573L60.1662 50.2062L60.1617 50.209L60.6911 51.0573ZM56.4064 53.0493L56.0948 52.0991L56.0922 52.1L56.4064 53.0493ZM46.2674 53.567L46.4827 52.5904L46.476 52.589L46.2674 53.567ZM41.4012 51.8444L40.9379 52.7306L40.9457 52.7346L41.4012 51.8444ZM37.1712 48.9185L36.5001 49.6599L36.5054 49.6646L37.1712 48.9185ZM35.3248 20.1055L36.0804 20.7605L36.085 20.7551L35.3248 20.1055ZM39.1466 16.6636L39.712 17.4885L39.7192 17.4834L39.1466 16.6636ZM43.7778 14.306L44.107 15.2503L44.116 15.247L43.7778 14.306ZM64.946 19.7397L65.6269 20.472L66.3518 19.7981L65.6853 19.0663L64.946 19.7397ZM61.1308 23.2868L60.3932 23.962L61.0737 24.7054L61.8118 24.0192L61.1308 23.2868ZM55.8716 19.555L55.4727 20.4719L55.476 20.4734L55.8716 19.555ZM43.7227 20.0429L44.1873 20.9285L44.1945 20.9246L43.7227 20.0429ZM36.4237 28.5956L35.4786 28.2689L35.477 28.2734L36.4237 28.5956ZM37.1775 40.3576L36.2781 40.795L36.2818 40.8023L37.1775 40.3576ZM45.5102 47.9349L45.1547 48.8696L45.1624 48.8725L45.5102 47.9349ZM57.9489 46.6093L57.4221 45.7593L57.4159 45.7632L57.9489 46.6093ZM60.6379 44.4554L59.9306 43.7485L59.9236 43.7556L60.6379 44.4554ZM62.7883 41.7283L63.3067 40.8732L62.4552 40.3569L61.9353 41.2063L62.7883 41.7283ZM66.3835 43.9149C65.6127 45.2024 64.7016 46.3813 63.6491 47.4527L65.0759 48.8543C66.2392 47.67 67.2474 46.3656 68.0995 44.9422L66.3835 43.9149ZM63.655 47.4468C62.6012 48.5019 61.4387 49.4214 60.1662 50.2062L61.2161 51.9085C62.6208 51.0421 63.9059 50.0257 65.0701 48.8602L63.655 47.4468ZM60.1617 50.209C58.9114 50.9893 57.5567 51.6197 56.0948 52.0991L56.718 53.9995C58.327 53.4719 59.8287 52.7743 61.2206 51.9057L60.1617 50.209ZM56.0922 52.1C54.6589 52.5744 53.1511 52.8636 51.5659 52.9651L51.6939 54.961C53.4417 54.849 55.1183 54.529 56.7207 53.9986L56.0922 52.1ZM51.5659 52.9651C49.8139 53.0774 48.1206 52.9515 46.4827 52.5904L46.0521 54.5435C47.8804 54.9466 49.7621 55.0848 51.6939 54.961L51.5659 52.9651ZM46.476 52.589C44.8457 52.2412 43.3068 51.696 41.8567 50.9541L40.9457 52.7346C42.5551 53.558 44.2604 54.1613 46.0588 54.545L46.476 52.589ZM41.8644 50.9581C40.4066 50.1961 39.0647 49.2679 37.8371 48.1724L36.5054 49.6646C37.856 50.8698 39.334 51.8922 40.9379 52.7306L41.8644 50.9581ZM37.8423 48.1771C36.6147 47.0659 35.5467 45.8196 34.637 44.4367L32.9661 45.5359C33.9688 47.06 35.1473 48.4352 36.5001 49.6598L37.8423 48.1771ZM34.637 44.4367C33.7285 43.0558 32.9944 41.552 32.4357 39.9222L30.5438 40.5708C31.155 42.3536 31.962 44.0096 32.9661 45.5359L34.637 44.4367ZM32.4357 39.9222C31.8808 38.3035 31.5447 36.5997 31.4299 34.8075L29.434 34.9355C29.5597 36.8974 29.9288 38.7768 30.5438 40.5708L32.4357 39.9222ZM31.4299 34.8075C31.315 33.0154 31.4309 31.2826 31.7746 29.6063L29.8154 29.2046C29.4344 31.0623 29.3082 32.9735 29.434 34.9355L31.4299 34.8075ZM31.7746 29.6063C32.1207 27.9185 32.6569 26.3333 33.3816 24.8478L31.5841 23.9709C30.7831 25.6128 30.194 27.3583 29.8154 29.2046L31.7746 29.6063ZM33.3816 24.8478C34.1067 23.3616 35.006 21.9999 36.0804 20.7605L34.5691 19.4505C33.3801 20.8221 32.3848 22.3296 31.5841 23.9709L33.3816 24.8478ZM36.085 20.7551C37.1593 19.4979 38.368 18.4097 39.712 17.4884L38.5812 15.8388C37.0906 16.8606 35.7514 18.067 34.5645 19.4559L36.085 20.7551ZM39.7192 17.4834C41.0585 16.5481 42.5201 15.8035 44.107 15.2502L43.4486 13.3617C41.6931 13.9738 40.0671 14.801 38.5741 15.8438L39.7192 17.4834ZM44.116 15.247C45.6952 14.6795 47.3499 14.3393 49.0835 14.2282L48.9556 12.2323C47.0404 12.355 45.2006 12.732 43.4396 13.3649L44.116 15.247ZM49.0835 14.2282C50.5693 14.133 52.01 14.2082 53.4075 14.4516L53.7507 12.4813C52.1913 12.2097 50.5922 12.1274 48.9556 12.2323L49.0835 14.2282ZM53.4075 14.4516C54.8146 14.6967 56.1611 15.0874 57.4486 15.6232L58.2169 13.7766C56.7899 13.1829 55.3006 12.7513 53.7507 12.4813L53.4075 14.4516ZM57.4486 15.6232C58.7361 16.1589 59.9486 16.8328 61.0873 17.6458L62.2494 16.0182C60.9885 15.1178 59.6439 14.3704 58.2169 13.7766L57.4486 15.6232ZM61.0873 17.6458C62.23 18.4617 63.2694 19.3839 64.2067 20.413L65.6853 19.0663C64.652 17.9318 63.5064 16.9156 62.2494 16.0182L61.0873 17.6458ZM64.2651 19.0073L60.4499 22.5545L61.8118 24.0192L65.6269 20.472L64.2651 19.0073ZM61.8685 22.6116C60.2947 20.8923 58.4247 19.566 56.2673 18.6366L55.476 20.4734C57.3762 21.292 59.0123 22.4535 60.3932 23.962L61.8685 22.6116ZM56.2706 18.638C54.1041 17.6954 51.7721 17.3096 49.2912 17.4686L49.4191 19.4645C51.6043 19.3245 53.6166 19.6644 55.4727 20.4719L56.2706 18.638ZM49.2912 17.4686C47.1202 17.6077 45.1027 18.1702 43.2509 19.1612L44.1945 20.9246C45.7828 20.0746 47.5203 19.5862 49.4191 19.4645L49.2912 17.4686ZM43.2581 19.1574C41.4265 20.1183 39.8426 21.3758 38.5133 22.9273L40.0321 24.2285C41.1938 22.8726 42.5766 21.7734 44.1873 20.9284L43.2581 19.1574ZM38.5133 22.9273C37.1824 24.4806 36.1715 26.2643 35.4786 28.2689L37.3688 28.9223C37.9835 27.1441 38.8719 25.5826 40.0321 24.2285L38.5133 22.9273ZM35.477 28.2734C34.795 30.2772 34.5286 32.3892 34.6703 34.5999L36.6662 34.472C36.5403 32.5077 36.7776 30.6594 37.3704 28.9178L35.477 28.2734ZM34.6703 34.5999C34.812 36.8107 35.3462 38.8788 36.2782 40.795L38.0767 39.9202C37.264 38.2492 36.7921 36.4362 36.6662 34.472L34.6703 34.5999ZM36.2818 40.8023C37.2249 42.702 38.4552 44.342 39.9735 45.7128L41.3138 44.2283C39.9903 43.0334 38.9098 41.5981 38.0731 39.9129L36.2818 40.8023ZM39.9735 45.7128C41.4882 47.0804 43.2176 48.133 45.1547 48.8696L45.8656 47.0002C44.1558 46.35 42.6408 45.4264 41.3138 44.2283L39.9735 45.7128ZM45.1624 48.8725C47.1227 49.5995 49.1922 49.89 51.36 49.751L51.2321 47.7551C49.3301 47.877 47.5423 47.622 45.8579 46.9973L45.1624 48.8725ZM51.36 49.751C52.6696 49.6671 53.9285 49.4266 55.134 49.0274L54.5052 47.1288C53.4685 47.4722 52.3784 47.6817 51.2321 47.7551L51.36 49.751ZM55.134 49.0274C56.3292 48.6316 57.446 48.108 58.4819 47.4555L57.4159 45.7632C56.5217 46.3265 55.5523 46.782 54.5052 47.1288L55.134 49.0274ZM58.4757 47.4593C59.5267 46.8079 60.486 46.0395 61.3523 45.1552L59.9236 43.7556C59.1697 44.5252 58.3363 45.1928 57.4221 45.7594L58.4757 47.4593ZM61.3452 45.1624C62.228 44.2791 62.9938 43.3081 63.6412 42.2503L61.9353 41.2063C61.3709 42.1286 60.7031 42.9756 59.9307 43.7485L61.3452 45.1624ZM62.2698 42.5834L66.7231 45.2836L67.76 43.5735L63.3067 40.8732L62.2698 42.5834ZM78.4731 33.748L77.4758 33.8219L77.5526 34.8586L78.5856 34.7416L78.4731 33.748ZM101.582 31.1309L101.695 32.1245L102.654 32.0159L102.58 31.0535L101.582 31.1309ZM100.066 11.597L100.074 10.5971L98.9852 10.5887L99.0695 11.6744L100.066 11.597ZM105.961 11.642L106.959 11.5693L106.892 10.6491L105.969 10.642L105.961 11.642ZM108.594 47.7761L108.736 48.7659L109.659 48.6332L109.591 47.7034L108.594 47.7761ZM102.965 48.586L101.968 48.6625L102.05 49.728L103.108 49.5758L102.965 48.586ZM102.001 36.0184L102.998 35.9419L102.92 34.9128L101.893 35.0242L102.001 36.0184ZM78.8326 38.5336L78.7247 37.5394L77.7585 37.6443L77.8358 38.6131L78.8326 38.5336ZM79.7739 50.3364L79.876 51.3312L80.8485 51.2314L80.7708 50.2569L79.7739 50.3364ZM74.288 50.8994L73.2909 50.9766L73.3701 51.9988L74.39 51.8941L74.288 50.8994ZM71.3766 13.3035L71.2655 12.3097L70.305 12.4171L70.3796 13.3807L71.3766 13.3035ZM76.9119 12.6846L77.9091 12.6107L77.8324 11.5754L76.8007 11.6908L76.9119 12.6846ZM78.5856 34.7416L101.695 32.1245L101.47 30.1372L78.3605 32.7543L78.5856 34.7416ZM102.58 31.0535L101.063 11.5196L99.0695 11.6744L100.585 31.2083L102.58 31.0535ZM100.059 12.597L105.954 12.642L105.969 10.642L100.074 10.5971L100.059 12.597ZM104.964 11.7147L107.597 47.8488L109.591 47.7034L106.959 11.5693L104.964 11.7147ZM108.452 46.7863L102.823 47.5962L103.108 49.5758L108.736 48.7659L108.452 46.7863ZM103.962 48.5095L102.998 35.9419L101.004 36.0949L101.968 48.6625L103.962 48.5095ZM101.893 35.0242L78.7247 37.5394L78.9405 39.5278L102.109 37.0125L101.893 35.0242ZM77.8358 38.6131L78.7771 50.4159L80.7708 50.2569L79.8294 38.4541L77.8358 38.6131ZM79.6719 49.3416L74.1859 49.9046L74.39 51.8941L79.876 51.3312L79.6719 49.3416ZM75.285 50.8222L72.3736 13.2263L70.3796 13.3807L73.2909 50.9766L75.285 50.8222ZM71.4878 14.2973L77.023 13.6784L76.8007 11.6908L71.2655 12.3097L71.4878 14.2973ZM75.9146 12.7585L77.4758 33.8219L79.4703 33.674L77.9091 12.6107L75.9146 12.7585ZM153.83 32.5649L154.809 32.7683L154.81 32.7657L153.83 32.5649ZM152.114 37.5363L151.219 37.09L151.215 37.0979L152.114 37.5363ZM145.427 45.3364L145.993 46.1612L145.996 46.1592L145.427 45.3364ZM140.796 47.694L140.458 46.753L140.455 46.7539L140.796 47.694ZM130.218 48.3719L130 49.3479L130.003 49.3485L130.218 48.3719ZM125.35 46.623L124.887 47.5093L124.895 47.5133L125.35 46.623ZM115.439 35.0251L114.493 35.3494L114.494 35.3519L115.439 35.0251ZM119.274 14.8841L120.03 15.5392L120.034 15.5338L119.274 14.8841ZM123.096 11.4422L123.661 12.2671L123.668 12.2621L123.096 11.4422ZM127.727 9.0846L128.056 10.0289L128.065 10.0257L127.727 9.0846ZM138.279 8.4084L138.061 9.38442L138.073 9.38696L138.279 8.4084ZM143.173 10.1556L142.71 11.0419L142.722 11.0482L143.173 10.1556ZM147.429 13.0798L146.758 13.8212L146.763 13.8259L147.429 13.0798ZM150.797 16.9857L149.962 17.5353L149.967 17.5426L150.797 16.9857ZM148.2 23.4668L147.254 23.7889L147.255 23.7922L148.2 23.4668ZM146.468 19.9317L145.629 20.4767L145.636 20.4865L146.468 19.9317ZM143.983 17.0261L143.308 17.7641L143.315 17.7705L143.983 17.0261ZM140.858 14.8484L140.391 15.7328L140.401 15.7382L140.858 14.8484ZM137.234 13.5482L137.012 14.5233L137.021 14.5252L137.029 14.5269L137.234 13.5482ZM127.672 14.8215L128.137 15.7071L128.144 15.7032L127.672 14.8215ZM120.373 23.3742L119.428 23.0475L119.426 23.052L120.373 23.3742ZM121.127 35.1362L120.227 35.5736L120.231 35.5809L121.127 35.1362ZM129.459 42.7136L129.104 43.6483L129.112 43.6511L129.459 42.7136ZM139.106 42.7559L139.438 43.6992L139.447 43.696L139.106 42.7559ZM142.534 41.0038L143.1 41.828L143.11 41.8212L142.534 41.0038ZM145.356 38.445L146.113 39.0982L146.119 39.0909L145.356 38.445ZM147.448 35.2197L146.552 34.7755L146.546 34.7862L147.448 35.2197ZM148.716 31.5186L149.696 31.7207L149.697 31.7173L148.716 31.5186ZM153.195 27.1628C153.31 28.9549 153.194 30.6877 152.85 32.364L154.81 32.7657C155.191 30.908 155.317 28.9968 155.191 27.0348L153.195 27.1628ZM152.851 32.3614C152.505 34.0285 151.96 35.6039 151.219 37.09L153.009 37.9826C153.829 36.3391 154.429 34.6001 154.809 32.7683L152.851 32.3614ZM151.215 37.0979C150.49 38.5856 149.589 39.958 148.514 41.2168L150.034 42.5161C151.22 41.1288 152.213 39.6145 153.013 37.9748L151.215 37.0979ZM148.514 41.2168C147.439 42.474 146.222 43.5725 144.859 44.5135L145.996 46.1592C147.501 45.1199 148.847 43.9051 150.034 42.5161L148.514 41.2168ZM144.862 44.5116C143.517 45.4332 142.05 46.1807 140.458 46.753L141.134 48.6351C142.882 48.0069 144.503 47.1826 145.993 46.1612L144.862 44.5116ZM140.455 46.7539C138.895 47.3194 137.251 47.659 135.517 47.7701L135.645 49.766C137.56 49.6433 139.392 49.2668 141.137 48.6342L140.455 46.7539ZM135.517 47.7701C133.765 47.8824 132.072 47.7565 130.434 47.3954L130.003 49.3485C131.831 49.7516 133.713 49.8898 135.645 49.766L135.517 47.7701ZM130.436 47.396C128.801 47.0307 127.259 46.4761 125.806 45.7328L124.895 47.5133C126.502 48.3353 128.204 48.9466 130 49.3479L130.436 47.396ZM125.814 45.7368C124.359 44.9761 123.018 44.0409 121.79 42.9294L120.448 44.4122C121.8 45.6366 123.281 46.6695 124.887 47.5092L125.814 45.7368ZM121.79 42.9294C120.562 41.8182 119.494 40.5719 118.585 39.189L116.914 40.2882C117.916 41.8124 119.095 43.1875 120.448 44.4122L121.79 42.9294ZM118.585 39.189C117.675 37.8068 116.942 36.3108 116.384 34.6984L114.494 35.3519C115.104 37.1171 115.911 38.7634 116.914 40.2882L118.585 39.189ZM116.385 34.7009C115.83 33.0821 115.494 31.3783 115.379 29.5862L113.383 29.7141C113.509 31.676 113.878 33.5555 114.493 35.3494L116.385 34.7009ZM115.379 29.5862C115.264 27.7941 115.38 26.0613 115.724 24.385L113.765 23.9832C113.384 25.841 113.258 27.7522 113.383 29.7141L115.379 29.5862ZM115.724 24.385C116.07 22.6972 116.606 21.112 117.331 19.6265L115.533 18.7495C114.732 20.3914 114.143 22.1369 113.765 23.9832L115.724 24.385ZM117.331 19.6265C118.056 18.1403 118.955 16.7786 120.03 15.5392L118.518 14.2291C117.329 15.6008 116.334 17.1083 115.533 18.7495L117.331 19.6265ZM120.034 15.5338C121.109 14.2766 122.317 13.1884 123.661 12.2671L122.53 10.6174C121.04 11.6392 119.701 12.8456 118.514 14.2345L120.034 15.5338ZM123.668 12.2621C125.008 11.3267 126.469 10.5822 128.056 10.0289L127.398 8.14035C125.642 8.75242 124.016 9.57962 122.523 10.6224L123.668 12.2621ZM128.065 10.0257C129.644 9.45813 131.299 9.11794 133.033 9.00684L132.905 7.01094C130.99 7.13367 129.15 7.51062 127.389 8.14353L128.065 10.0257ZM133.033 9.00684C134.766 8.89574 136.441 9.02256 138.061 9.38434L138.497 7.43246C136.685 7.02773 134.82 6.8882 132.905 7.01094L133.033 9.00684ZM138.073 9.38696C139.717 9.73316 141.262 10.2851 142.71 11.0418L143.636 9.26939C142.022 8.42573 140.304 7.81283 138.485 7.42985L138.073 9.38696ZM142.722 11.0482C144.189 11.7893 145.534 12.7131 146.758 13.8212L148.1 12.3385C146.744 11.1107 145.251 10.0851 143.624 9.26302L142.722 11.0482ZM146.763 13.8259C147.987 14.9181 149.053 16.1539 149.962 17.5353L151.633 16.4361C150.629 14.9105 149.449 13.5424 148.095 12.3337L146.763 13.8259ZM149.967 17.5426C150.89 18.9206 151.632 20.4214 152.189 22.0481L154.081 21.3995C153.469 19.6136 152.651 17.9557 151.628 16.4288L149.967 17.5426ZM152.189 22.0481C152.744 23.6668 153.08 25.3706 153.195 27.1628L155.191 27.0348C155.065 25.0729 154.696 23.1935 154.081 21.3995L152.189 22.0481ZM149.981 27.3687C149.887 25.8977 149.609 24.4876 149.146 23.1414L147.255 23.7922C147.658 24.9622 147.902 26.196 147.985 27.4966L149.981 27.3687ZM149.147 23.1447C148.686 21.7899 148.071 20.5328 147.3 19.3768L145.636 20.4865C146.307 21.4928 146.847 22.5925 147.254 23.7889L149.147 23.1447ZM147.306 19.3867C146.555 18.2314 145.67 17.1957 144.651 16.2816L143.315 17.7705C144.203 18.5662 144.974 19.4676 145.629 20.4767L147.306 19.3867ZM144.658 16.288C143.639 15.3567 142.524 14.5794 141.314 13.9587L140.401 15.7382C141.45 16.2761 142.419 16.9506 143.308 17.7641L144.658 16.288ZM141.325 13.9642C140.11 13.3226 138.814 12.8581 137.44 12.5696L137.029 14.5269C138.226 14.7782 139.345 15.1805 140.391 15.7327L141.325 13.9642ZM137.456 12.5731C136.089 12.2624 134.683 12.1548 133.24 12.2473L133.368 14.2432C134.627 14.1625 135.841 14.2569 137.012 14.5233L137.456 12.5731ZM133.24 12.2473C131.069 12.3864 129.052 12.9489 127.2 13.9399L128.144 15.7032C129.732 14.8533 131.47 14.3649 133.368 14.2432L133.24 12.2473ZM127.207 13.936C125.376 14.8969 123.792 16.1544 122.463 17.7059L123.981 19.0072C125.143 17.6512 126.526 16.552 128.137 15.7071L127.207 13.936ZM122.463 17.7059C121.132 19.2593 120.121 21.0429 119.428 23.0475L121.318 23.7009C121.933 21.9227 122.821 20.3612 123.981 19.0072L122.463 17.7059ZM119.426 23.052C118.744 25.0559 118.478 27.1678 118.62 29.3785L120.615 29.2506C120.49 27.2863 120.727 25.438 121.32 23.6964L119.426 23.052ZM118.62 29.3785C118.761 31.5893 119.295 33.6575 120.227 35.5736L122.026 34.6988C121.213 33.0278 120.741 31.2149 120.615 29.2506L118.62 29.3785ZM120.231 35.5809C121.174 37.4806 122.404 39.1206 123.923 40.4914L125.263 39.0069C123.94 37.812 122.859 36.3767 122.022 34.6915L120.231 35.5809ZM123.923 40.4914C125.437 41.859 127.167 42.9116 129.104 43.6483L129.815 41.7789C128.105 41.1287 126.59 40.2051 125.263 39.0069L123.923 40.4914ZM129.112 43.6511C131.072 44.3782 133.141 44.6686 135.309 44.5297L135.181 42.5338C133.279 42.6557 131.492 42.4007 129.807 41.776L129.112 43.6511ZM135.309 44.5297C136.747 44.4375 138.125 44.1615 139.438 43.6991L138.774 41.8127C137.641 42.2116 136.445 42.4528 135.181 42.5338L135.309 44.5297ZM139.447 43.696C140.763 43.2189 141.982 42.5966 143.1 41.8279L141.968 40.1796C140.994 40.8484 139.928 41.3942 138.765 41.8158L139.447 43.696ZM143.11 41.8212C144.222 41.0377 145.223 40.1295 146.113 39.0981L144.598 37.7919C143.816 38.6995 142.936 39.4972 141.958 40.1863L143.11 41.8212ZM146.119 39.0909C147.009 38.0393 147.752 36.8928 148.349 35.6532L146.546 34.7862C146.024 35.8729 145.373 36.8766 144.592 37.7991L146.119 39.0909ZM148.344 35.6638C148.96 34.4209 149.41 33.1056 149.696 31.7207L147.737 31.3166C147.485 32.5378 147.09 33.6899 146.552 34.7756L148.344 35.6638ZM149.697 31.7173C149.982 30.3066 150.076 28.8562 149.981 27.3687L147.985 27.4966C148.07 28.8159 147.986 30.0895 147.736 31.32L149.697 31.7173ZM202.869 4.13702L203.862 4.25303L203.977 3.27483L203 3.14566L202.869 4.13702ZM198.246 43.7217L198.284 44.721L199.14 44.6881L199.239 43.8378L198.246 43.7217ZM192.052 43.9601L191.119 44.3207L191.377 44.9869L192.091 44.9594L192.052 43.9601ZM180.682 14.5421L181.614 14.1816L180.528 11.372L179.718 14.2732L180.682 14.5421ZM172.022 45.5608L172.086 46.5588L172.794 46.5134L172.985 45.8297L172.022 45.5608ZM166.575 45.9099L165.606 46.159L165.813 46.9608L166.639 46.9079L166.575 45.9099ZM156.827 8.01234L156.628 7.03239L155.597 7.2421L155.859 8.26144L156.827 8.01234ZM162.331 6.89346L163.306 6.67473L163.092 5.7182L162.131 5.9135L162.331 6.89346ZM169.027 36.7695L168.052 36.9882L169.989 37.0427L169.027 36.7695ZM177.09 8.37839L177.142 7.37976L176.345 7.33798L176.128 8.10522L177.09 8.37839ZM183.664 8.72327L184.601 8.37217L184.371 7.75895L183.717 7.72464L183.664 8.72327ZM194.181 36.7693L193.244 37.1204L195.176 36.8639L194.181 36.7693ZM197.353 3.40724L197.484 2.41588L196.456 2.27981L196.358 3.31256L197.353 3.40724ZM201.876 4.02101L197.253 43.6057L199.239 43.8378L203.862 4.25303L201.876 4.02101ZM198.207 42.7225L192.014 42.9609L192.091 44.9594L198.284 44.721L198.207 42.7225ZM192.985 43.5996L181.614 14.1816L179.749 14.9027L191.119 44.3207L192.985 43.5996ZM179.718 14.2732L171.058 45.2919L172.985 45.8297L181.645 14.811L179.718 14.2732ZM171.958 44.5629L166.511 44.912L166.639 46.9079L172.086 46.5588L171.958 44.5629ZM167.543 45.6608L157.796 7.76325L155.859 8.26144L165.606 46.159L167.543 45.6608ZM157.027 8.9923L162.53 7.87341L162.131 5.9135L156.628 7.03239L157.027 8.9923ZM161.355 7.11218L168.052 36.9882L170.003 36.5508L163.306 6.67473L161.355 7.11218ZM169.989 37.0427L178.052 8.65155L176.128 8.10522L168.066 36.4963L169.989 37.0427ZM177.037 9.37701L183.612 9.7219L183.717 7.72464L177.142 7.37976L177.037 9.37701ZM182.728 9.07437L193.244 37.1204L195.117 36.4182L184.601 8.37217L182.728 9.07437ZM195.176 36.8639L198.349 3.50191L196.358 3.31256L193.185 36.6746L195.176 36.8639ZM197.222 4.3986L202.738 5.12838L203 3.14566L197.484 2.41588L197.222 4.3986Z" fill="black" mask="url(#path-1-outside-1_1_12)"/>
</g>
<defs>
<filter id="filter0_d_1_12" x="0.868713" y="0.953125" width="208.963" height="70.092" filterUnits="userSpaceOnUse" color-interpolation-filters="sRGB">
<feFlood flood-opacity="0" result="BackgroundImageFix"/>
<feColorMatrix in="SourceAlpha" type="matrix" values="0 0 0 0 0 0 0 0 0 0 0 0 0 0 0 0 0 0 127 0" result="hardAlpha"/>
<feOffset dy="4"/>
<feGaussianBlur stdDeviation="2"/>
<feComposite in2="hardAlpha" operator="out"/>
<feColorMatrix type="matrix" values="0 0 0 0 0 0 0 0 0 0 0 0 0 0 0 0 0 0 0.25 0"/>
<feBlend mode="normal" in2="BackgroundImageFix" result="effect1_dropShadow_1_12"/>
<feBlend mode="normal" in="SourceGraphic" in2="effect1_dropShadow_1_12" result="shape"/>
</filter>
</defs>
</svg>
