<svg width="48" height="48" viewBox="0 0 48 48" fill="none" xmlns="http://www.w3.org/2000/svg">
<g clip-path="url(#clip0_38_49)">
<path fill-rule="evenodd" clip-rule="evenodd" d="M36.768 45.558C37.412 46.014 38.242 46.128 38.982 45.848C39.722 45.566 40.266 44.934 40.43 44.168C42.168 36 46.384 15.326 47.966 7.896C48.086 7.336 47.886 6.754 47.446 6.38C47.006 6.006 46.396 5.898 45.852 6.1C37.466 9.204 11.64 18.894 1.084 22.8C0.414002 23.048 -0.0219977 23.692 2.25042e-06 24.398C0.0240023 25.106 0.500002 25.72 1.186 25.926C5.92 27.342 12.134 29.312 12.134 29.312C12.134 29.312 15.038 38.082 16.552 42.542C16.742 43.102 17.18 43.542 17.758 43.694C18.334 43.844 18.95 43.686 19.38 43.28C21.812 40.984 25.572 37.434 25.572 37.434C25.572 37.434 32.716 42.672 36.768 45.558ZM14.748 28.204L18.106 39.28L18.852 32.266C18.852 32.266 31.826 20.564 39.222 13.894C39.438 13.698 39.468 13.37 39.288 13.14C39.11 12.91 38.782 12.856 38.536 13.012C29.964 18.486 14.748 28.204 14.748 28.204Z" fill="white"/>
</g>
<defs>
<clipPath id="clip0_38_49">
<rect width="48" height="48" fill="white"/>
</clipPath>
</defs>
</svg>
